<svg width="914" height="295" viewBox="0 0 914 295" fill="none" xmlns="http://www.w3.org/2000/svg">
<path fill-rule="evenodd" clip-rule="evenodd" d="M341.723 1.72021C339.311 3.67621 339.146 -1.5478 343.201 48.4472C344.003 58.3352 344.659 68.0382 344.659 70.0112V73.5982L328.409 82.6582C319.472 87.6412 306.388 94.9522 299.334 98.9042C272.36 114.018 257.546 121.97 256.375 121.966C254.909 121.961 222.527 103.437 188.159 82.9432C180.459 78.3522 171.426 73.1172 168.087 71.3102L162.014 68.0252L154.587 72.3032C143.27 78.8222 117.673 93.7812 92.4544 108.615C79.9674 115.96 69.0364 121.97 68.1644 121.97C66.8904 121.97 29.5664 101.661 8.65936 89.5922C3.42036 86.5672 1.12635 86.3102 0.229355 88.6482C-0.689645 91.0442 0.414354 91.8572 17.6594 101.481C26.1844 106.238 40.4724 114.214 49.4094 119.205L65.6594 128.279V181.002C65.6594 225.063 65.4284 233.917 64.2544 234.891C62.4554 236.384 47.5954 245.838 21.5244 262.077C10.1744 269.146 0.678356 275.501 0.421356 276.2C-0.322644 278.223 0.677354 279.97 2.57835 279.97C3.54235 279.97 12.6174 274.727 22.7454 268.32C70.4504 238.138 67.8914 239.587 70.6594 241.197C72.0344 241.997 82.3844 247.97 93.6594 254.47C104.934 260.97 123.056 271.627 133.93 278.152C144.804 284.678 155.69 290.983 158.121 292.164L162.54 294.311L182.349 282.923C193.245 276.659 212.284 265.598 224.659 258.343C237.034 251.087 249.859 243.591 253.159 241.684L259.159 238.216L259.659 182.87L260.159 127.524L280.159 116.439C291.159 110.342 310.68 99.4172 323.539 92.1622C336.397 84.9062 347.536 78.9702 348.292 78.9702C349.78 78.9702 372.252 90.6592 415.817 114.093C431.029 122.275 444.031 128.97 444.711 128.97C445.391 128.97 462.048 119.295 481.728 107.47C501.407 95.6452 517.747 85.9702 518.038 85.9702C518.329 85.9702 529.276 92.5662 542.363 100.628C555.451 108.69 566.908 115.483 567.823 115.723C568.78 115.973 569.936 115.321 570.541 114.19C571.36 112.66 571.212 111.878 569.877 110.678C567.447 108.495 519.371 79.6842 518.159 79.6852C517.609 79.6852 502.759 88.3492 485.159 98.9372C467.559 109.524 451.201 119.23 448.807 120.504L444.456 122.82L438.307 119.498C434.926 117.671 422.034 110.675 409.659 103.951C397.284 97.2282 379.36 87.6742 369.828 82.7202C360.296 77.7662 352.285 73.1582 352.025 72.4812C351.765 71.8032 352.701 60.7242 354.106 47.8602C355.51 34.9952 356.659 19.3962 356.659 13.1952C356.659 2.01321 356.638 1.91321 354.094 0.945213C350.071 -0.583787 344.103 -0.209793 341.723 1.72021ZM153.347 83.7202C153.188 86.0452 153.592 86.5202 155.961 86.7912C159.367 87.1822 161.05 90.7822 160.346 96.1712C160.05 98.4342 160.309 100.062 161.011 100.363C161.751 100.68 161.538 101.247 160.409 101.962C158.024 103.471 158.194 105.325 160.659 104.68C163.311 103.987 163.221 105.599 160.528 107.04C158.59 108.077 158.453 108.741 159.021 114.326C159.482 118.862 160.2 120.928 161.763 122.22C162.928 123.182 164.233 123.97 164.664 123.97C165.094 123.97 166.565 121.833 167.932 119.22C169.299 116.607 171.259 114.313 172.288 114.12C173.317 113.928 175.059 112.971 176.159 111.993C177.259 111.016 179.84 109.678 181.895 109.02C186.217 107.637 187.498 106.15 185.537 104.793C184.574 104.126 184.866 104.039 186.508 104.503C188.506 105.068 188.764 104.877 188.239 103.221C187.547 101.042 190.605 93.4442 192.159 93.4782C193.793 93.5142 218.055 107.126 219.364 108.741C220.839 110.562 218.29 116.13 214.256 119.894C212.43 121.599 211.659 123.343 211.659 125.769C211.659 129.056 211.799 129.192 214.603 128.631C216.947 128.162 217.674 128.441 218.168 129.997C218.509 131.072 218.507 132.406 218.165 132.961C217.366 134.253 218.279 134.244 220.725 132.935C221.789 132.365 222.659 131.105 222.659 130.135C222.659 129.164 223.18 127.849 223.817 127.212C224.693 126.336 224.655 125.67 223.659 124.471C222.552 123.136 222.685 122.426 224.502 119.969C225.688 118.364 226.659 116.583 226.659 116.01C226.659 114.74 228.334 114.634 229.089 115.857C229.39 116.344 228.967 117.299 228.148 117.979C226.344 119.477 226.16 124.928 227.909 125.076C228.597 125.134 230.509 125.152 232.159 125.114L235.159 125.047L231.909 126.037C228.905 126.952 227.357 128.97 229.659 128.97C230.209 128.97 230.659 129.406 230.659 129.939C230.659 130.471 230.02 130.662 229.239 130.362C228.304 130.004 227.705 130.614 227.489 132.144C227.282 133.601 226.412 134.547 225.159 134.676C224.059 134.789 221.898 135.067 220.358 135.294C217.942 135.649 217.478 135.314 216.986 132.854C216.672 131.286 215.978 130.273 215.443 130.603C214.908 130.934 214.674 132.267 214.922 133.565C215.244 135.248 214.832 136.098 213.489 136.524C212.453 136.853 210.91 138.184 210.059 139.483C209.208 140.781 207.195 142.133 205.585 142.486C202.428 143.18 201.742 144.681 204.159 145.608C204.984 145.925 205.659 147.261 205.659 148.577C205.659 150.691 205.205 150.97 201.772 150.97C198.163 150.97 197.848 151.202 197.355 154.22C196.961 156.635 197.317 157.896 198.742 159.13C201.189 161.25 201.167 162.636 198.659 164.202C197.559 164.889 196.659 166.111 196.659 166.918C196.659 167.725 194.993 170.092 192.956 172.178C189.564 175.652 189.233 176.499 189.006 182.296C188.764 188.478 188.855 188.727 192.997 193.239C196.968 197.564 197.518 197.837 201.706 197.557C204.165 197.392 207.207 196.931 208.466 196.531C209.883 196.082 211.36 196.307 212.343 197.122C213.216 197.847 214.657 198.447 215.545 198.455C216.729 198.466 217.168 199.45 217.193 202.152C217.211 204.177 217.935 206.652 218.801 207.652C221.612 210.896 222.582 215.321 221.078 218.036C219.347 221.162 219.345 222.466 221.068 226.319C221.843 228.052 222.711 230.595 222.998 231.97C223.285 233.345 224.291 236.643 225.234 239.299C226.69 243.401 227.265 244.043 229.053 243.562C230.212 243.252 232.172 242.991 233.411 242.984C235.726 242.97 242.659 236.523 242.659 234.384C242.659 233.741 243.334 232.655 244.159 231.97C244.984 231.285 245.659 229.43 245.659 227.848C245.659 226.265 246.043 224.97 246.513 224.97C246.983 224.97 248.577 223.849 250.055 222.479L252.743 219.988L252.451 227.62L252.159 235.253L225.659 250.727C211.084 259.238 191.331 270.874 181.764 276.586C172.196 282.297 163.477 286.97 162.387 286.97C159.808 286.97 143.957 277.407 140.409 273.711C137.524 270.706 136.861 267.168 138.817 265.212C139.693 264.336 139.671 263.69 138.725 262.549C137.718 261.337 137.77 260.454 138.991 258.007C139.824 256.337 140.112 254.97 139.63 254.97C138.298 254.97 142.898 250.417 145.022 249.633C146.278 249.17 146.716 248.297 146.366 246.958C145.979 245.479 146.343 244.97 147.784 244.97C148.85 244.97 150.009 244.182 150.361 243.22C150.712 242.258 151.823 240.397 152.829 239.085C153.836 237.773 154.659 236.009 154.659 235.164C154.659 232.953 157.648 229.97 159.865 229.97C161.904 229.97 164.659 224.728 164.659 220.847C164.659 219.643 165.782 217.186 167.155 215.386C169.643 212.124 169.653 208.97 167.174 208.97C166.476 208.97 165.344 208.295 164.659 207.47C163.974 206.645 162.396 205.97 161.151 205.97C157.064 205.97 152.436 203.346 151.156 200.302C150.264 198.179 148.821 197.036 145.953 196.176C143.77 195.522 141.167 194.083 140.167 192.979C139.167 191.874 137.098 190.97 135.569 190.97C134.04 190.97 131.549 190.499 130.034 189.922C127.804 189.075 126.791 189.228 124.719 190.729C123.311 191.748 120.584 192.557 118.659 192.526C115.345 192.473 115.157 192.284 115.113 188.97C115.072 185.894 114.727 185.431 112.266 185.144C109.42 184.813 109.299 184.222 111.153 179.72C112.187 177.208 109.019 177.42 107.427 179.97C105.799 182.576 102.032 182.535 100.619 179.895C97.9694 174.944 101.728 167.363 106.448 168.139C107.389 168.294 108.732 168.06 109.433 167.621C110.134 167.181 111.995 167.105 113.569 167.45C115.74 167.927 116.576 168.806 117.033 171.091C117.38 172.823 118.078 173.829 118.678 173.458C119.278 173.088 119.457 171.41 119.1 169.506C118.549 166.573 118.885 165.875 122.069 163.334C124.044 161.759 125.659 159.786 125.659 158.949C125.659 157.54 127.102 155.834 132.919 150.363C135.349 148.077 139.166 146.34 138.152 147.981C137.383 149.226 137.651 149.217 141.51 147.872C143.242 147.268 144.659 146.342 144.659 145.813C144.659 145.285 144.25 145.105 143.749 145.414C141.968 146.515 139.581 144.792 140.197 142.852C140.54 141.77 140.315 140.97 139.667 140.97C139.048 140.97 138.824 140.513 139.169 139.954C139.515 139.395 140.329 139.271 140.978 139.679C142.439 140.596 145.739 140.119 147.409 138.75C148.946 137.49 149.013 138.44 147.578 141.121C146.298 143.513 146.363 143.607 149.911 144.497C152.072 145.039 152.659 144.836 152.659 143.547C152.659 142.645 152.003 141.656 151.202 141.348C150.176 140.954 149.92 139.913 150.338 137.826C150.791 135.559 150.36 134.23 148.502 132.166C147.166 130.683 145.936 128.12 145.769 126.47C145.373 122.566 145.036 122.318 142.834 124.312C140.765 126.184 139.659 125.598 139.659 122.632C139.659 120.04 136.864 116.97 134.504 116.97C133.215 116.97 132.659 117.705 132.659 119.411C132.659 120.754 132.173 122.153 131.578 122.52C130.983 122.888 130.762 124.243 131.085 125.533C131.479 127.101 131.055 128.473 129.807 129.674C128.781 130.662 127.639 132.726 127.271 134.261C126.458 137.644 124.669 136.898 124.632 133.161C124.612 131.101 123.648 129.884 120.523 127.97C115.78 125.066 114.037 121.693 115.905 119.036C117.548 116.701 123.659 111.578 123.659 112.536C123.659 112.945 124.624 112.423 125.805 111.375C127.935 109.484 127.942 109.486 126.802 111.659C125.668 113.821 126.892 116.02 128.122 114.03C128.453 113.495 129.495 113.354 130.438 113.716C132.044 114.332 132.042 114.203 130.406 111.707C128.188 108.321 128.206 108.174 130.881 107.79C132.437 107.566 133.411 106.422 134.131 103.97C135.457 99.4562 137.852 99.3162 140.169 103.618C141.964 106.952 141.959 107.022 139.716 109.409C138.468 110.738 136.819 111.585 136.053 111.291C135.286 110.997 134.659 111.254 134.659 111.863C134.659 112.472 135.601 112.97 136.753 112.97C137.928 112.97 139.053 113.76 139.317 114.77C139.861 116.851 143.659 119.606 143.659 117.919C143.659 117.332 144.112 117.132 144.666 117.474C146.226 118.438 146.943 115.37 145.701 113.048C145.057 111.845 144.989 110.97 145.54 110.97C146.064 110.97 146.651 111.446 146.845 112.027C147.284 113.345 150.659 112.151 150.659 110.677C150.659 110.084 149.658 108.534 148.435 107.232C146.569 105.245 146.445 104.72 147.666 103.965C148.891 103.209 148.764 102.623 146.863 100.268C145.62 98.7292 143.935 96.0082 143.118 94.2202C141.995 91.7632 140.995 90.9702 139.023 90.9702C136.826 90.9702 136.609 90.7352 137.65 89.4812C138.33 88.6622 139.353 88.2812 139.924 88.6342C140.495 88.9872 141.562 88.4562 142.295 87.4532C143.746 85.4682 150.437 81.2162 152.347 81.0642C153.041 81.0092 153.457 82.1162 153.347 83.7202ZM135.004 93.5132C134.678 94.3622 134.197 94.8422 133.935 94.5802C133.673 94.3182 133.755 93.6232 134.118 93.0372C135.104 91.4412 135.68 91.7512 135.004 93.5132ZM131.254 99.0402C132.452 100.394 132.363 100.91 130.612 102.79C128.053 105.537 127.339 105.553 128.199 102.845C128.653 101.415 128.511 100.943 127.766 101.404C126.618 102.114 126.273 100.901 126.647 97.4702C126.938 94.8042 129.058 93.5292 129.512 95.7462C129.707 96.6942 130.49 98.1762 131.254 99.0402ZM122.788 102.241C121.123 103.906 120.18 102.252 121.73 100.385C122.667 99.2552 123.209 99.1202 123.485 99.9482C123.704 100.606 123.391 101.638 122.788 102.241ZM119.659 100.97C119.659 101.52 118.957 101.97 118.1 101.97C117.243 101.97 116.819 101.52 117.159 100.97C117.499 100.42 118.2 99.9702 118.718 99.9702C119.236 99.9702 119.659 100.42 119.659 100.97ZM137.659 105.97C137.659 106.52 138.109 106.97 138.659 106.97C139.209 106.97 139.659 106.52 139.659 105.97C139.659 105.42 139.209 104.97 138.659 104.97C138.109 104.97 137.659 105.42 137.659 105.97ZM98.2123 114.2C97.2763 114.724 96.2183 114.863 95.8633 114.507C94.9833 113.627 97.8313 111.958 98.9903 112.674C99.4993 112.989 99.1493 113.676 98.2123 114.2ZM185.659 116.084C185.659 117.067 186.418 118.295 187.345 118.814C189.626 120.091 193.659 118.176 193.659 115.817C193.659 114.32 192.927 114.013 189.659 114.141C186.544 114.263 185.659 114.693 185.659 116.084ZM237.659 123.97C237.659 124.52 237.461 124.97 237.218 124.97C236.975 124.97 236.499 124.52 236.159 123.97C235.819 123.42 236.018 122.97 236.6 122.97C237.182 122.97 237.659 123.42 237.659 123.97ZM76.5884 130.722C77.3584 133.409 77.2524 133.756 75.8204 133.235C74.3314 132.693 74.3404 132.838 75.9094 134.629C78.0924 137.122 78.1304 140.175 76.0324 144.596C73.8504 149.195 74.6794 155.949 78.0194 160.768C79.4494 162.831 80.8964 165.905 81.2354 167.598C81.5734 169.292 82.9454 171.981 84.2844 173.574L86.7174 176.47L85.0794 172.47C82.5694 166.338 82.1714 164.551 83.5014 165.373C84.1384 165.766 84.6594 166.669 84.6594 167.379C84.6594 168.089 86.0094 170.534 87.6594 172.811C89.3094 175.089 90.6594 177.847 90.6594 178.941C90.6594 181.214 97.0994 184.97 100.997 184.97C102.326 184.97 103.974 185.645 104.659 186.47C105.344 187.295 106.723 187.97 107.725 187.97C108.726 187.97 110.134 188.793 110.852 189.8C111.571 190.806 113.435 192.458 114.994 193.471C117.253 194.937 117.994 195.046 118.637 194.006C119.251 193.013 119.709 193.195 120.552 194.769C122.087 197.639 121.95 198.742 119.761 201.091C117.403 203.621 116.489 208.969 118.072 210.97C118.724 211.795 120.136 214.224 121.209 216.369C122.281 218.513 124.572 221.116 126.299 222.153C130.058 224.41 130.44 226.022 129.954 237.58C129.748 242.469 129.485 248.833 129.369 251.721C129.254 254.609 129.609 257.137 130.159 257.34C130.793 257.574 130.723 258.449 129.968 259.732C129.313 260.844 129.048 262.026 129.381 262.358C130.046 263.024 130.858 268.97 130.283 268.97C130.086 268.97 124.802 265.908 118.541 262.166C112.281 258.423 106.484 255.044 105.659 254.656C104.834 254.268 96.9594 249.735 88.1594 244.583L72.1594 235.214L71.9004 181.528C71.7274 145.617 71.9764 128.048 72.6504 128.465C73.2054 128.807 73.6594 128.296 73.6594 127.329C73.6594 124.78 75.4934 126.905 76.5884 130.722ZM201.132 130.014C200.777 130.588 201.182 132.119 202.031 133.415C203.176 135.163 203.346 136.575 202.687 138.873C201.827 141.872 201.886 141.952 204.478 141.333C205.953 140.981 207.496 140.504 207.909 140.273C208.963 139.681 208.847 136.97 207.768 136.97C207.277 136.97 206.156 135.17 205.276 132.97C203.68 128.981 202.354 128.036 201.132 130.014ZM108.342 133.158C108.023 133.955 107.786 133.718 107.738 132.553C107.695 131.499 107.931 130.909 108.263 131.241C108.595 131.573 108.631 132.436 108.342 133.158ZM197.909 134.632C195.811 135.479 196.415 138.97 198.659 138.97C199.759 138.97 200.659 138.557 200.659 138.052C200.659 137.547 200.932 136.422 201.266 135.552C201.873 133.971 200.488 133.592 197.909 134.632ZM118.314 141.513C119.148 143.686 118.487 144.019 115.123 143.119C112.352 142.378 112.299 142.269 114.173 141.182C116.849 139.631 117.615 139.692 118.314 141.513ZM122.413 147.403C120.84 149.106 119.659 148.451 119.659 145.876C119.659 144.208 119.972 144.067 121.663 144.972C123.291 145.843 123.432 146.3 122.413 147.403ZM117.659 145.779C117.659 146.224 116.998 147.461 116.191 148.529C114.692 150.511 114.173 149.401 115.266 146.552C115.893 144.918 117.659 144.347 117.659 145.779ZM242.988 148.97C243.357 148.97 243.659 148.295 243.659 147.47C243.659 146.645 244.32 145.97 245.128 145.97C245.935 145.97 246.37 146.561 246.093 147.282C245.815 148.007 246.725 149.203 248.124 149.951C252.792 152.449 251.237 153.837 244.124 153.523C240.53 153.364 237.319 152.964 236.989 152.634C236.66 152.304 236.961 150.655 237.659 148.969C238.819 146.17 239.075 146.037 240.623 147.437C241.554 148.28 242.619 148.97 242.988 148.97ZM228.138 156.194C229.054 158.271 230.195 159.97 230.672 159.97C232.229 159.97 232.858 157.914 231.72 156.543C230.879 155.531 230.988 155.058 232.165 154.606C233.233 154.196 234.047 154.861 234.754 156.719C236.106 160.275 237.241 160.874 241.834 160.454C245.957 160.077 246.197 160.425 244.636 164.53C243.675 167.058 243.329 167.185 238.886 166.637C236.286 166.316 232.921 165.757 231.409 165.395C229.237 164.875 228.659 165.091 228.659 166.421C228.659 167.709 228.13 167.94 226.409 167.403C225.171 167.016 223.934 166.363 223.659 165.951C223.384 165.539 222.259 165.032 221.159 164.825C220.002 164.608 219.024 163.506 218.839 162.21C218.554 160.208 217.95 159.97 213.148 159.97C210.194 159.97 207.499 160.42 207.159 160.97C206.819 161.52 205.443 161.97 204.1 161.97C202.757 161.97 201.659 161.52 201.659 160.97C201.659 160.42 202.57 159.97 203.684 159.97C204.838 159.97 206.113 159.003 206.649 157.72C208.085 154.284 210.933 151.393 213.558 150.707C215.3 150.251 216.942 150.907 219.791 153.196C223.886 156.488 224.622 157.97 222.159 157.97C221.334 157.97 220.659 158.42 220.659 158.97C220.659 160.801 222.592 160.002 224.237 157.491C225.807 155.095 225.758 154.924 222.76 152.402C218.6 148.901 218.807 147.393 223.065 150.184C224.939 151.413 227.221 154.117 228.138 156.194ZM122.659 150.363C122.659 150.579 121.961 151.024 121.107 151.352C120.217 151.693 119.816 151.525 120.166 150.959C120.753 150.008 122.659 149.553 122.659 150.363ZM215.738 155.553C215.786 156.718 216.023 156.955 216.342 156.158C216.631 155.436 216.595 154.573 216.263 154.241C215.931 153.909 215.695 154.499 215.738 155.553ZM249.654 177.598C249.657 178.218 250.334 179.285 251.159 179.97C251.984 180.655 252.659 182.375 252.659 183.792C252.659 185.364 252.306 185.999 251.753 185.42C250.218 183.81 244.657 172.998 244.695 171.697C244.739 170.187 249.647 176.026 249.654 177.598ZM114.659 177.029C114.659 177.611 115.104 177.813 115.648 177.477C116.192 177.141 118.233 177.623 120.184 178.549C124.558 180.624 126.012 179.721 121.802 177.544C118.31 175.738 114.659 175.475 114.659 177.029ZM126.851 181.045C127.048 181.636 127.535 182.086 127.934 182.045C128.333 182.004 129.361 181.97 130.218 181.97C131.075 181.97 131.499 181.52 131.159 180.97C130.325 179.62 126.398 179.688 126.851 181.045ZM325.159 189.572C322.959 193.197 320.246 196.52 319.13 196.958C316.374 198.037 307.212 213.076 308.736 214.017C309.513 214.498 308.749 216.489 306.341 220.253C304.396 223.294 303.072 226.049 303.398 226.376C303.725 226.703 307.223 226.97 311.171 226.97C317.079 226.97 318.669 226.616 320.159 224.97C321.491 223.498 323.239 222.97 326.779 222.97C330.565 222.97 331.816 223.396 332.659 224.97C333.593 226.715 334.753 226.97 341.766 226.97H349.803L349.106 221.22C348.308 214.635 348.042 213.97 346.203 213.97C345.342 213.97 344.471 211.711 343.762 207.638C342.358 199.58 342.372 197.232 343.825 196.748C344.681 196.463 344.747 194.642 344.075 189.915L343.159 183.47L336.159 183.225L329.159 182.981L325.159 189.572ZM361.243 187.22C360.152 194.125 358.432 198.97 357.07 198.97C356.329 198.97 355.195 201.583 354.356 205.22C353.083 210.739 353.09 211.611 354.417 212.675C355.67 213.681 355.732 214.624 354.789 218.368C352.437 227.709 351.713 227.243 367.909 226.823C381.124 226.48 382.578 226.247 387.93 223.628C394.414 220.453 399.78 214.177 397.23 212.75C396.033 212.08 396.025 211.404 397.177 208.216C397.923 206.156 398.794 203.233 399.115 201.72C399.435 200.207 400.364 198.97 401.178 198.97C402.969 198.97 402.97 199.016 401.27 206.241C400.117 211.142 400.121 212.129 401.298 212.788C402.414 213.412 402.487 214.605 401.672 218.903C400.071 227.342 399.773 226.97 408.14 226.97C416.435 226.97 415.64 227.695 417.454 218.47C418.042 215.479 418.773 214.393 420.351 214.163C422.194 213.896 422.633 214.655 423.818 220.163L425.175 226.47L433.051 226.764L440.927 227.059L440.228 223.764C439.844 221.953 439.265 218.947 438.942 217.086C438.572 214.958 437.669 213.524 436.506 213.22C434 212.564 434.185 211.511 437.146 209.57C439.671 207.916 443.659 201.219 443.659 198.632C443.659 197.852 444.623 196.574 445.802 195.791C447.777 194.48 447.847 194.071 446.699 190.592C444.48 183.869 441.554 182.907 424.227 183.209L409.295 183.47L407.908 189.72C407.045 193.608 406.012 195.97 405.173 195.97C404.432 195.97 403.642 196.521 403.418 197.194C403.193 197.868 402.498 196.388 401.873 193.905C400.643 189.022 397.791 185.721 393.344 184.037C391.796 183.45 384.091 182.97 376.222 182.97H361.915L361.243 187.22ZM453.367 183.72C453.142 184.133 452.387 187.244 451.69 190.634C450.81 194.913 449.897 196.936 448.706 197.247C447.556 197.548 446.615 199.473 445.853 203.083C445.228 206.046 444.426 209.483 444.071 210.72C443.592 212.392 443.841 212.97 445.042 212.97C447.009 212.97 447.046 214.044 445.31 220.736C444.567 223.597 444.192 226.17 444.476 226.454C444.76 226.738 452.962 226.97 462.703 226.97C482.046 226.97 481.983 226.989 482.935 220.97C483.24 219.045 483.8 216.682 484.181 215.72C484.813 214.122 483.974 213.969 474.516 213.956C468.82 213.949 463.146 213.671 461.909 213.34C456.888 211.994 460.266 211.02 470.883 210.753L482.107 210.47L482.955 205.97C483.421 203.495 483.883 200.795 483.981 199.97C484.128 198.735 482.394 198.439 474.159 198.297C468.659 198.201 463.709 198.086 463.159 198.04C462.609 197.995 463.448 197.285 465.023 196.464C467.023 195.421 470.996 194.97 478.19 194.97H488.493L489.576 189.921C490.172 187.144 490.659 184.444 490.659 183.921C490.659 182.792 453.982 182.595 453.367 183.72ZM492.635 189.6C491.701 194.547 490.917 196.351 489.546 196.71C488.356 197.021 487.491 198.473 487.092 200.83C486.753 202.832 486.07 206.045 485.573 207.97C484.369 212.638 484.409 212.97 486.178 212.97C487.238 212.97 487.543 213.65 487.186 215.22C485.407 223.055 484.959 225.936 485.443 226.421C485.745 226.723 489.23 226.97 493.186 226.97H500.38L501.816 220.22C502.982 214.733 503.638 213.414 505.318 213.168C507.002 212.923 507.811 213.941 509.685 218.668C510.951 221.859 512.418 225.033 512.945 225.72C513.637 226.622 518.076 226.97 528.874 226.97C542.232 226.97 544.112 226.759 546.338 225.008C549.693 222.369 557.296 222.424 558.727 225.097C559.579 226.689 560.935 226.97 567.766 226.97H575.803L575.106 221.22C574.301 214.574 574.05 213.97 572.1 213.97C571.307 213.97 570.65 213.858 570.639 213.72C570.628 213.582 570.015 209.758 569.278 205.22C568.1 197.976 568.118 196.97 569.427 196.97C570.663 196.97 570.797 195.91 570.214 190.755C569.827 187.336 569.293 184.186 569.026 183.755C568.759 183.323 565.511 182.97 561.808 182.97H555.075L551.227 189.548C549.11 193.166 546.416 196.492 545.239 196.939C542.322 198.049 533.172 213.051 534.799 214.057C535.664 214.591 535.086 216.168 532.752 219.636L529.5 224.47L530.133 220.47C530.481 218.27 530.997 215.682 531.28 214.72C531.626 213.543 531.243 212.97 530.11 212.97C528.852 212.97 528.578 212.401 529.028 210.72C529.359 209.483 530.137 205.922 530.757 202.807C531.536 198.897 532.422 197.004 533.619 196.691C534.661 196.418 535.589 194.885 535.942 192.854C536.265 190.993 536.84 188.008 537.22 186.22L537.909 182.97H530.253C524.986 182.97 522.484 183.36 522.237 184.22C522.039 184.908 521.306 188.057 520.608 191.22C519.647 195.578 518.911 196.97 517.569 196.97C516.516 196.97 515.639 197.882 515.404 199.22C515.044 201.28 514.942 201.314 514.189 199.619C513.675 198.462 513.802 197.499 514.528 197.051C515.36 196.537 514.906 194.445 512.924 189.659L510.159 182.985L502.022 182.978L493.885 182.97L492.635 189.6ZM601.635 189.6C600.741 194.337 599.893 196.357 598.666 196.678C597.485 196.987 596.434 199.258 595.304 203.942C593.274 212.352 593.25 213.97 595.159 213.97C596.909 213.97 596.935 214.098 595.799 217.155C595.326 218.428 594.631 221.158 594.254 223.22L593.568 226.97H601.477H609.386L610.7 220.779C611.697 216.079 611.73 214.494 610.836 214.196C610.189 213.98 609.659 213.166 609.659 212.387C609.659 211.322 611.149 210.97 615.659 210.97C620.326 210.97 621.659 211.303 621.659 212.47C621.659 213.295 622.334 213.97 623.159 213.97C624.905 213.97 624.989 214.629 623.742 218.571C623.237 220.165 622.554 222.707 622.223 224.22L621.621 226.97H629.557H637.493L638.576 221.921C639.919 215.658 639.937 213.97 638.659 213.97C637.289 213.97 637.399 212.009 639.216 204.019C640.332 199.112 641.28 197.041 642.564 196.705C643.665 196.417 644.58 194.935 644.942 192.854C645.265 190.993 645.844 187.987 646.228 186.176L646.927 182.881L639.051 183.176L631.175 183.47L629.804 189.843C628.791 194.55 627.939 196.345 626.546 196.71C625.508 196.981 624.659 197.601 624.659 198.087C624.659 198.572 621.959 198.97 618.659 198.97C615.326 198.97 612.659 198.526 612.659 197.97C612.659 197.42 613.304 196.97 614.092 196.97C615.58 196.97 616.066 195.86 617.159 189.97C617.516 188.045 618.03 185.682 618.301 184.72C618.741 183.159 617.936 182.97 610.84 182.97H602.885L601.635 189.6ZM649.296 186.72C648.158 193.609 646.578 197.97 645.219 197.97C643.457 197.97 642.725 200.044 641.984 207.137C641.478 211.973 641.636 212.97 642.905 212.97C643.842 212.97 644.674 214.236 645.048 216.231C645.842 220.46 649.621 224.472 654.251 226C660.264 227.985 671.586 226.789 677.041 223.592C682.51 220.387 687.401 213.965 685.278 212.777C684.144 212.142 684.134 211.306 685.219 207.743C685.934 205.393 686.785 202.233 687.108 200.72C687.432 199.207 688.364 197.97 689.178 197.97C690.986 197.97 690.986 197.959 689.126 205.847C687.797 211.487 687.795 212.353 689.109 213.347C690.548 214.434 690.227 218.051 688.054 225.22C687.581 226.783 688.363 226.97 695.384 226.97H703.244L704.452 222.456C705.923 216.953 706.023 212.627 704.659 213.47C704.074 213.832 703.659 212.794 703.659 210.97C703.659 209.146 704.074 208.108 704.659 208.47C705.209 208.81 705.659 209.748 705.659 210.554C705.659 211.36 706.698 212.414 707.968 212.897C709.528 213.491 711.184 215.911 713.08 220.372L715.884 226.97H723.752C731.52 226.97 731.629 226.935 732.237 224.22C732.576 222.707 733.243 219.937 733.719 218.064C734.63 214.477 734.151 212.548 732.59 213.513C731.348 214.28 731.391 213.765 733.313 204.819C734.461 199.475 735.468 196.992 736.607 196.694C737.64 196.424 738.694 194.33 739.453 191.041C741.413 182.551 741.66 182.848 732.909 183.178L725.159 183.47L723.776 190.138C722.746 195.099 721.914 196.931 720.526 197.295C719.387 197.592 718.647 198.697 718.627 200.126C718.596 202.428 718.568 202.434 717.093 200.482C715.832 198.814 715.81 198.331 716.954 197.482C718.081 196.647 717.856 195.336 715.667 189.97L713.015 183.47H705.087H697.159L695.687 190.22C694.595 195.229 693.79 196.97 692.566 196.97C690.889 196.97 691.044 194.252 693.216 185.6L693.898 182.882L686.047 183.176L678.196 183.47L676.658 190.46C675.605 195.249 674.616 197.547 673.516 197.759C672.01 198.049 668.604 207.902 668.546 212.139C668.512 214.568 666.238 215.065 661.938 213.583C658.796 212.501 658.107 211.762 657.851 209.198C657.424 204.921 659.444 197.97 661.115 197.97C661.968 197.97 662.921 195.974 663.615 192.737C664.233 189.859 664.994 186.484 665.307 185.237C665.863 183.023 665.69 182.97 657.895 182.97H649.915L649.296 186.72ZM744.154 184.22C743.611 185.757 741.717 194.188 741.683 195.22C741.67 195.633 744.359 195.97 747.659 195.97C753.402 195.97 755.692 197.205 751.825 198.216C750.504 198.562 749.664 200.322 748.825 204.5C747.328 211.952 747.357 212.97 749.068 212.97C750.28 212.97 750.281 213.709 749.08 218.22C746.675 227.256 746.556 227.096 755.409 226.762L763.159 226.47L764.43 220.042C765.385 215.217 765.415 213.437 764.55 212.903C763.48 212.241 763.806 206.668 765.277 200.47C765.942 197.669 770.134 195.97 776.383 195.97C782.312 195.97 782.751 195.468 784.026 187.22L784.683 182.97H764.639C749.507 182.97 744.488 183.276 744.154 184.22ZM787.634 185.535C787.098 186.946 786.659 188.904 786.659 189.886C786.659 193.086 784.497 197.97 783.08 197.97C782.32 197.97 781.438 199.207 781.12 200.72C780.803 202.233 780.12 205.357 779.601 207.663C778.352 213.221 778.406 213.97 780.053 213.97C781.442 213.97 781.363 214.895 779.132 224.72L778.621 226.97H797.529H816.436L817.116 223.22C817.49 221.158 818.029 218.497 818.314 217.308C818.818 215.202 818.537 215.138 807.326 214.808C800.998 214.622 795.514 214.162 795.139 213.787C793.19 211.83 796.55 210.97 806.151 210.97C817.657 210.97 816.892 211.463 818.174 203.22L818.835 198.97L807.997 198.854C802.036 198.79 797.947 198.532 798.909 198.281C799.871 198.029 800.659 197.406 800.659 196.897C800.659 196.384 805.558 195.97 811.62 195.97H822.582L823.565 192.22C824.106 190.158 824.847 187.233 825.212 185.72L825.876 182.97H807.243H788.609L787.634 185.535ZM828.173 186.13C826.725 193.189 825.294 196.97 824.068 196.97C822.648 196.97 822.307 197.9 820.63 206.35C819.712 210.977 819.728 212.395 820.705 212.999C821.895 213.734 821.624 218.215 819.992 224.764C819.428 227.027 819.526 227.054 827.247 226.764L835.074 226.47L836.474 220.72C837.539 216.347 838.309 214.97 839.689 214.97C841.451 214.97 842.553 217.287 844.088 224.22C844.687 226.923 844.826 226.97 852.239 226.97H859.782L859.084 222.22C858.109 215.578 856.976 212.97 855.066 212.97C853.932 212.97 854.643 211.75 857.366 209.028C859.535 206.858 861.854 203.262 862.523 201.028C863.223 198.692 864.359 196.97 865.199 196.97C867.091 196.97 867.109 192.742 865.234 189.115C862.851 184.507 859.529 183.599 843.508 183.177L828.857 182.791L828.173 186.13ZM882.659 184.145C877.826 185.518 872.844 189.515 870.91 193.569C870.018 195.44 868.746 196.97 868.082 196.97C866.2 196.97 865.458 201.776 866.879 204.769C868.633 208.464 874.076 210.967 880.362 210.968C885.796 210.97 890.975 212.65 890.069 214.116C889.778 214.586 884.218 214.97 877.711 214.97H865.882L865.202 218.72C864.828 220.783 864.267 223.532 863.955 224.83L863.387 227.19L878.773 226.788C892.32 226.434 894.672 226.117 898.448 224.137C904.142 221.153 909.186 212.97 905.332 212.97C904.462 212.97 904.132 212.023 904.372 210.22C904.583 208.641 903.893 206.112 902.751 204.281C900.456 200.6 895.936 198.984 887.909 198.976C882.527 198.97 880.894 197.676 884.909 196.6C886.146 196.269 892.429 195.991 898.87 195.984L910.582 195.97L911.52 192.22C912.036 190.158 912.737 187.233 913.078 185.72L913.697 182.97L899.928 183.06C892.355 183.11 884.584 183.598 882.659 184.145ZM384.459 196.17C386.092 197.803 385.967 198.97 384.159 198.97C383.107 198.97 382.659 200.031 382.659 202.52C382.659 204.472 381.966 207.41 381.118 209.049C380.271 210.688 379.885 212.527 380.261 213.135C380.742 213.913 379.271 214.103 375.303 213.774C372.2 213.516 369.405 213.049 369.091 212.735C368.777 212.421 369.072 209.36 369.746 205.933C370.637 201.406 371.467 199.571 372.782 199.227C373.778 198.967 374.863 197.903 375.193 196.862C375.641 195.451 376.743 194.97 379.526 194.97C381.579 194.97 383.799 195.51 384.459 196.17ZM430.659 195.514C430.659 195.813 429.646 197.126 428.409 198.431C426.247 200.713 419.452 202.35 418.909 200.72C418.176 198.522 418.903 196.808 420.909 196.001C423.377 195.009 430.659 194.645 430.659 195.514ZM849.159 196.735C848.609 197.139 847.663 198.37 847.057 199.47C845.736 201.868 837.648 202.995 837.674 200.777C837.695 198.983 838.868 197.381 840.659 196.699C842.888 195.85 850.32 195.882 849.159 196.735ZM244.659 204.47C244.659 205.295 244.209 205.97 243.659 205.97C243.109 205.97 242.659 205.295 242.659 204.47C242.659 203.645 243.109 202.97 243.659 202.97C244.209 202.97 244.659 203.645 244.659 204.47ZM328.659 208.47C328.659 210.294 328.124 210.97 326.68 210.97C324.933 210.97 324.835 210.678 325.841 208.47C326.467 207.095 327.358 205.97 327.82 205.97C328.281 205.97 328.659 207.095 328.659 208.47ZM554.659 208.47C554.659 210.294 554.124 210.97 552.68 210.97C550.933 210.97 550.835 210.678 551.841 208.47C552.467 207.095 553.358 205.97 553.82 205.97C554.281 205.97 554.659 207.095 554.659 208.47ZM252.659 211.137C252.659 215.433 251.915 215.897 251.176 212.06C250.777 209.988 251.423 206.97 252.266 206.97C252.482 206.97 252.659 208.845 252.659 211.137ZM502.659 208.888C502.659 209.393 502.932 210.518 503.266 211.388C503.664 212.426 503.321 212.97 502.266 212.97C501.219 212.97 500.659 212.1 500.659 210.47C500.659 209.095 501.109 207.97 501.659 207.97C502.209 207.97 502.659 208.383 502.659 208.888Z" fill="black"/>
</svg>
